<mxfile host="app.diagrams.net" agent="Mozilla/5.0 (Windows NT 10.0; Win64; x64) AppleWebKit/537.36 (KHTML, like Gecko) Chrome/135.0.0.0 Safari/537.36" version="26.2.13">
  <diagram name="Page-1" id="ClBDFTrlVil5nWFejEg2">
    <mxGraphModel dx="1503" dy="380" grid="1" gridSize="10" guides="1" tooltips="1" connect="1" arrows="1" fold="1" page="1" pageScale="1" pageWidth="850" pageHeight="1100" math="0" shadow="0">
      <root>
        <mxCell id="0" />
        <mxCell id="1" parent="0" />
        <mxCell id="jbbtdIAwkqoKD0javM4b-1" value="&lt;font style=&quot;font-size: 19px;&quot;&gt;doctor&lt;/font&gt;" style="whiteSpace=wrap;html=1;align=center;" parent="1" vertex="1">
          <mxGeometry x="-360" y="590" width="100" height="40" as="geometry" />
        </mxCell>
        <mxCell id="jbbtdIAwkqoKD0javM4b-2" value="doctor_name" style="ellipse;whiteSpace=wrap;html=1;align=center;rotation=0;" parent="1" vertex="1">
          <mxGeometry x="-455.24" y="497.58" width="80" height="28.65" as="geometry" />
        </mxCell>
        <mxCell id="jbbtdIAwkqoKD0javM4b-3" value="doctor_email" style="ellipse;whiteSpace=wrap;html=1;align=center;rotation=0;" parent="1" vertex="1">
          <mxGeometry x="-525" y="536" width="100" height="27.08" as="geometry" />
        </mxCell>
        <mxCell id="jbbtdIAwkqoKD0javM4b-4" value="doctor_password" style="ellipse;whiteSpace=wrap;html=1;align=center;" parent="1" vertex="1">
          <mxGeometry x="-375.23999999999995" y="484.91" width="110" height="30.03" as="geometry" />
        </mxCell>
        <mxCell id="jbbtdIAwkqoKD0javM4b-5" value="doctor_id" style="ellipse;whiteSpace=wrap;html=1;align=center;fontStyle=4;rotation=0;" parent="1" vertex="1">
          <mxGeometry x="-521.35" y="579.39" width="77.32" height="27.07" as="geometry" />
        </mxCell>
        <mxCell id="jbbtdIAwkqoKD0javM4b-8" value="mobile" style="ellipse;whiteSpace=wrap;html=1;align=center;rotation=0;" parent="1" vertex="1">
          <mxGeometry x="-512.69" y="619.3500000000001" width="60" height="20.65" as="geometry" />
        </mxCell>
        <mxCell id="jbbtdIAwkqoKD0javM4b-9" value="qualification" style="ellipse;whiteSpace=wrap;html=1;align=center;rotation=0;" parent="1" vertex="1">
          <mxGeometry x="-491.95" y="654.28" width="81.95" height="25.78" as="geometry" />
        </mxCell>
        <mxCell id="jbbtdIAwkqoKD0javM4b-14" value="registration_number" style="ellipse;whiteSpace=wrap;html=1;align=center;rotation=0;" parent="1" vertex="1">
          <mxGeometry x="-480.24" y="690" width="130" height="25.78" as="geometry" />
        </mxCell>
        <mxCell id="jbbtdIAwkqoKD0javM4b-20" value="" style="endArrow=none;html=1;rounded=0;entryX=0.5;entryY=1;entryDx=0;entryDy=0;exitX=0.5;exitY=0;exitDx=0;exitDy=0;" parent="1" source="jbbtdIAwkqoKD0javM4b-1" target="jbbtdIAwkqoKD0javM4b-4" edge="1">
          <mxGeometry relative="1" as="geometry">
            <mxPoint x="-410" y="556.26" as="sourcePoint" />
            <mxPoint x="-250" y="556.26" as="targetPoint" />
          </mxGeometry>
        </mxCell>
        <mxCell id="jbbtdIAwkqoKD0javM4b-21" value="" style="endArrow=none;html=1;rounded=0;exitX=0;exitY=0.5;exitDx=0;exitDy=0;entryX=1;entryY=0.5;entryDx=0;entryDy=0;" parent="1" source="jbbtdIAwkqoKD0javM4b-1" target="jbbtdIAwkqoKD0javM4b-5" edge="1">
          <mxGeometry relative="1" as="geometry">
            <mxPoint x="-280" y="578.65" as="sourcePoint" />
            <mxPoint x="-410" y="616" as="targetPoint" />
          </mxGeometry>
        </mxCell>
        <mxCell id="jbbtdIAwkqoKD0javM4b-23" value="" style="endArrow=none;html=1;rounded=0;entryX=0.5;entryY=0;entryDx=0;entryDy=0;exitX=0.4;exitY=1;exitDx=0;exitDy=0;exitPerimeter=0;" parent="1" source="jbbtdIAwkqoKD0javM4b-1" target="jbbtdIAwkqoKD0javM4b-14" edge="1">
          <mxGeometry relative="1" as="geometry">
            <mxPoint x="-240" y="666.41" as="sourcePoint" />
            <mxPoint x="-162" y="656.41" as="targetPoint" />
          </mxGeometry>
        </mxCell>
        <mxCell id="jbbtdIAwkqoKD0javM4b-24" value="" style="endArrow=none;html=1;rounded=0;exitX=0.25;exitY=0;exitDx=0;exitDy=0;entryX=0.69;entryY=0.966;entryDx=0;entryDy=0;entryPerimeter=0;" parent="1" source="jbbtdIAwkqoKD0javM4b-1" target="jbbtdIAwkqoKD0javM4b-2" edge="1">
          <mxGeometry relative="1" as="geometry">
            <mxPoint x="-350" y="568.65" as="sourcePoint" />
            <mxPoint x="-380" y="528.65" as="targetPoint" />
          </mxGeometry>
        </mxCell>
        <mxCell id="jbbtdIAwkqoKD0javM4b-26" value="" style="endArrow=none;html=1;rounded=0;exitX=0;exitY=0;exitDx=0;exitDy=0;entryX=1;entryY=0.5;entryDx=0;entryDy=0;" parent="1" source="jbbtdIAwkqoKD0javM4b-1" target="jbbtdIAwkqoKD0javM4b-3" edge="1">
          <mxGeometry relative="1" as="geometry">
            <mxPoint x="-340" y="588.65" as="sourcePoint" />
            <mxPoint x="-372" y="534.65" as="targetPoint" />
          </mxGeometry>
        </mxCell>
        <mxCell id="jbbtdIAwkqoKD0javM4b-27" value="" style="endArrow=none;html=1;rounded=0;entryX=1;entryY=0.5;entryDx=0;entryDy=0;exitX=-0.013;exitY=0.845;exitDx=0;exitDy=0;exitPerimeter=0;" parent="1" source="jbbtdIAwkqoKD0javM4b-1" target="jbbtdIAwkqoKD0javM4b-8" edge="1">
          <mxGeometry relative="1" as="geometry">
            <mxPoint x="-390" y="595.65" as="sourcePoint" />
            <mxPoint x="-447" y="578.65" as="targetPoint" />
          </mxGeometry>
        </mxCell>
        <mxCell id="jbbtdIAwkqoKD0javM4b-28" value="" style="endArrow=none;html=1;rounded=0;entryX=0.786;entryY=0.104;entryDx=0;entryDy=0;exitX=0.25;exitY=1;exitDx=0;exitDy=0;entryPerimeter=0;" parent="1" source="jbbtdIAwkqoKD0javM4b-1" target="jbbtdIAwkqoKD0javM4b-9" edge="1">
          <mxGeometry relative="1" as="geometry">
            <mxPoint x="-380" y="605.65" as="sourcePoint" />
            <mxPoint x="-487" y="630.65" as="targetPoint" />
          </mxGeometry>
        </mxCell>
        <mxCell id="jbbtdIAwkqoKD0javM4b-51" value="dosage" style="ellipse;whiteSpace=wrap;html=1;align=center;rotation=0;" parent="1" vertex="1">
          <mxGeometry x="61.120000000000054" y="800.0000000000002" width="60" height="24.62" as="geometry" />
        </mxCell>
        <mxCell id="jbbtdIAwkqoKD0javM4b-52" value="before_after" style="ellipse;whiteSpace=wrap;html=1;align=center;rotation=0;" parent="1" vertex="1">
          <mxGeometry x="61.12" y="731.34" width="73.88" height="25.78" as="geometry" />
        </mxCell>
        <mxCell id="jbbtdIAwkqoKD0javM4b-63" value="duration" style="ellipse;whiteSpace=wrap;html=1;align=center;rotation=0;" parent="1" vertex="1">
          <mxGeometry x="99.99999999999997" y="771.34" width="64.94" height="18.26" as="geometry" />
        </mxCell>
        <mxCell id="jbbtdIAwkqoKD0javM4b-70" value="&lt;span style=&quot;font-size: 20px;&quot;&gt;prescription&lt;/span&gt;" style="whiteSpace=wrap;html=1;align=center;" parent="1" vertex="1">
          <mxGeometry x="-62.54" y="840" width="140" height="40" as="geometry" />
        </mxCell>
        <mxCell id="jbbtdIAwkqoKD0javM4b-72" value="prescription_id" style="ellipse;whiteSpace=wrap;html=1;align=center;fontStyle=4;" parent="1" vertex="1">
          <mxGeometry x="-105.75" y="905" width="106.25" height="30" as="geometry" />
        </mxCell>
        <mxCell id="jbbtdIAwkqoKD0javM4b-81" value="problem" style="ellipse;whiteSpace=wrap;html=1;align=center;" parent="1" vertex="1">
          <mxGeometry x="-14.999999999999996" y="930" width="80" height="25" as="geometry" />
        </mxCell>
        <mxCell id="jbbtdIAwkqoKD0javM4b-84" value="" style="endArrow=none;html=1;rounded=0;exitX=0.5;exitY=0;exitDx=0;exitDy=0;entryX=0.181;entryY=1.008;entryDx=0;entryDy=0;entryPerimeter=0;" parent="1" source="jbbtdIAwkqoKD0javM4b-72" target="jbbtdIAwkqoKD0javM4b-70" edge="1">
          <mxGeometry relative="1" as="geometry">
            <mxPoint x="-102.53999999999999" y="755" as="sourcePoint" />
            <mxPoint x="57.46" y="755" as="targetPoint" />
          </mxGeometry>
        </mxCell>
        <mxCell id="jbbtdIAwkqoKD0javM4b-85" value="" style="endArrow=none;html=1;rounded=0;exitX=0.5;exitY=0;exitDx=0;exitDy=0;entryX=0.654;entryY=1.016;entryDx=0;entryDy=0;entryPerimeter=0;" parent="1" source="jbbtdIAwkqoKD0javM4b-81" target="jbbtdIAwkqoKD0javM4b-70" edge="1">
          <mxGeometry relative="1" as="geometry">
            <mxPoint x="-102.53999999999999" y="870" as="sourcePoint" />
            <mxPoint x="-52.54" y="865" as="targetPoint" />
          </mxGeometry>
        </mxCell>
        <mxCell id="jbbtdIAwkqoKD0javM4b-99" value="&lt;font style=&quot;font-size: 20px;&quot;&gt;patient&lt;/font&gt;" style="whiteSpace=wrap;html=1;align=center;" parent="1" vertex="1">
          <mxGeometry x="-340.85" y="945" width="100" height="30" as="geometry" />
        </mxCell>
        <mxCell id="jbbtdIAwkqoKD0javM4b-100" value="patient_id" style="ellipse;whiteSpace=wrap;html=1;align=center;fontStyle=4;" parent="1" vertex="1">
          <mxGeometry x="-310" y="1005" width="100" height="25" as="geometry" />
        </mxCell>
        <mxCell id="jbbtdIAwkqoKD0javM4b-101" value="patient_birth_regi_no" style="ellipse;whiteSpace=wrap;html=1;align=center;" parent="1" vertex="1">
          <mxGeometry x="-222.32" y="950" width="146.95" height="25" as="geometry" />
        </mxCell>
        <mxCell id="jbbtdIAwkqoKD0javM4b-102" value="patient_NID" style="ellipse;whiteSpace=wrap;html=1;align=center;" parent="1" vertex="1">
          <mxGeometry x="-392.53" y="990" width="80" height="25" as="geometry" />
        </mxCell>
        <mxCell id="jbbtdIAwkqoKD0javM4b-103" value="patient_name" style="ellipse;whiteSpace=wrap;html=1;align=center;" parent="1" vertex="1">
          <mxGeometry x="-444.03" y="960" width="90" height="30" as="geometry" />
        </mxCell>
        <mxCell id="jbbtdIAwkqoKD0javM4b-104" value="patient_gender" style="ellipse;whiteSpace=wrap;html=1;align=center;" parent="1" vertex="1">
          <mxGeometry x="-450" y="925" width="90" height="25" as="geometry" />
        </mxCell>
        <mxCell id="jbbtdIAwkqoKD0javM4b-105" value="" style="endArrow=none;html=1;rounded=0;exitX=1;exitY=0.5;exitDx=0;exitDy=0;entryX=0;entryY=0.75;entryDx=0;entryDy=0;" parent="1" source="jbbtdIAwkqoKD0javM4b-103" target="jbbtdIAwkqoKD0javM4b-99" edge="1">
          <mxGeometry relative="1" as="geometry">
            <mxPoint x="-408.90000000000003" y="865" as="sourcePoint" />
            <mxPoint x="-248.9" y="865" as="targetPoint" />
          </mxGeometry>
        </mxCell>
        <mxCell id="jbbtdIAwkqoKD0javM4b-106" value="" style="endArrow=none;html=1;rounded=0;exitX=1;exitY=0;exitDx=0;exitDy=0;entryX=0.207;entryY=1.056;entryDx=0;entryDy=0;entryPerimeter=0;" parent="1" source="jbbtdIAwkqoKD0javM4b-102" target="jbbtdIAwkqoKD0javM4b-99" edge="1">
          <mxGeometry relative="1" as="geometry">
            <mxPoint x="-408.90000000000003" y="980" as="sourcePoint" />
            <mxPoint x="-358.90000000000003" y="975" as="targetPoint" />
          </mxGeometry>
        </mxCell>
        <mxCell id="jbbtdIAwkqoKD0javM4b-107" value="" style="endArrow=none;html=1;rounded=0;exitX=0.5;exitY=0;exitDx=0;exitDy=0;" parent="1" source="jbbtdIAwkqoKD0javM4b-100" target="jbbtdIAwkqoKD0javM4b-99" edge="1">
          <mxGeometry relative="1" as="geometry">
            <mxPoint x="-380.90000000000003" y="1021" as="sourcePoint" />
            <mxPoint x="-358.90000000000003" y="1005" as="targetPoint" />
          </mxGeometry>
        </mxCell>
        <mxCell id="jbbtdIAwkqoKD0javM4b-108" value="" style="endArrow=none;html=1;rounded=0;exitX=1;exitY=1;exitDx=0;exitDy=0;entryX=0;entryY=0.5;entryDx=0;entryDy=0;" parent="1" source="jbbtdIAwkqoKD0javM4b-104" target="jbbtdIAwkqoKD0javM4b-99" edge="1">
          <mxGeometry relative="1" as="geometry">
            <mxPoint x="-283.90000000000003" y="1025" as="sourcePoint" />
            <mxPoint x="-288.90000000000003" y="1005" as="targetPoint" />
          </mxGeometry>
        </mxCell>
        <mxCell id="jbbtdIAwkqoKD0javM4b-109" value="" style="endArrow=none;html=1;rounded=0;exitX=0;exitY=0.5;exitDx=0;exitDy=0;entryX=1.003;entryY=0.653;entryDx=0;entryDy=0;entryPerimeter=0;" parent="1" source="jbbtdIAwkqoKD0javM4b-101" target="jbbtdIAwkqoKD0javM4b-99" edge="1">
          <mxGeometry relative="1" as="geometry">
            <mxPoint x="-173.9" y="1028" as="sourcePoint" />
            <mxPoint x="-288.90000000000003" y="930" as="targetPoint" />
          </mxGeometry>
        </mxCell>
        <mxCell id="Ny59YyF_WHzDi1XFRu8P-16" value="&lt;font style=&quot;font-size: 19px;&quot;&gt;specialization&lt;/font&gt;" style="whiteSpace=wrap;html=1;align=center;" parent="1" vertex="1">
          <mxGeometry x="-62.539999999999964" y="526.23" width="160" height="32.5" as="geometry" />
        </mxCell>
        <mxCell id="Ny59YyF_WHzDi1XFRu8P-17" value="specialization_id" style="ellipse;whiteSpace=wrap;html=1;align=center;fontStyle=4;flipH=0;flipV=0;" parent="1" vertex="1">
          <mxGeometry x="-116.99999999999997" y="468.62" width="117.5" height="40" as="geometry" />
        </mxCell>
        <mxCell id="Ny59YyF_WHzDi1XFRu8P-18" value="specialization_name" style="ellipse;whiteSpace=wrap;html=1;align=center;flipH=0;flipV=0;" parent="1" vertex="1">
          <mxGeometry x="19.99999999999999" y="468.61999999999995" width="115" height="40" as="geometry" />
        </mxCell>
        <mxCell id="Ny59YyF_WHzDi1XFRu8P-19" value="" style="endArrow=none;html=1;rounded=0;entryX=0.45;entryY=0.991;entryDx=0;entryDy=0;exitX=0.102;exitY=0.044;exitDx=0;exitDy=0;exitPerimeter=0;entryPerimeter=0;" parent="1" source="Ny59YyF_WHzDi1XFRu8P-16" target="Ny59YyF_WHzDi1XFRu8P-17" edge="1">
          <mxGeometry relative="1" as="geometry">
            <mxPoint x="-187.74318181818126" y="348.66000000000116" as="sourcePoint" />
            <mxPoint x="-126.74318181818126" y="309.66000000000116" as="targetPoint" />
          </mxGeometry>
        </mxCell>
        <mxCell id="Ny59YyF_WHzDi1XFRu8P-20" value="" style="endArrow=none;html=1;rounded=0;entryX=0.808;entryY=-0.01;entryDx=0;entryDy=0;entryPerimeter=0;" parent="1" source="Ny59YyF_WHzDi1XFRu8P-18" target="Ny59YyF_WHzDi1XFRu8P-16" edge="1">
          <mxGeometry relative="1" as="geometry">
            <mxPoint x="-98.69999999999979" y="581.1400000000001" as="sourcePoint" />
            <mxPoint x="-96.26999999999998" y="559.94" as="targetPoint" />
          </mxGeometry>
        </mxCell>
        <mxCell id="Ny59YyF_WHzDi1XFRu8P-21" value="&lt;font style=&quot;font-size: 19px;&quot;&gt;medicine&lt;/font&gt;" style="whiteSpace=wrap;html=1;align=center;flipH=0;flipV=0;" parent="1" vertex="1">
          <mxGeometry x="-82.54" y="640" width="170" height="40" as="geometry" />
        </mxCell>
        <mxCell id="Ny59YyF_WHzDi1XFRu8P-22" value="medicine_id" style="ellipse;whiteSpace=wrap;html=1;align=center;fontStyle=4;flipH=0;flipV=0;" parent="1" vertex="1">
          <mxGeometry x="-3.8299999999999983" y="607.09" width="101.29" height="19.37" as="geometry" />
        </mxCell>
        <mxCell id="Ny59YyF_WHzDi1XFRu8P-23" value="medicine_name" style="ellipse;whiteSpace=wrap;html=1;align=center;flipH=0;flipV=0;" parent="1" vertex="1">
          <mxGeometry x="-130" y="606.46" width="115" height="20" as="geometry" />
        </mxCell>
        <mxCell id="Ny59YyF_WHzDi1XFRu8P-24" value="" style="endArrow=none;html=1;rounded=0;entryX=0.45;entryY=0.991;entryDx=0;entryDy=0;exitX=0.731;exitY=0;exitDx=0;exitDy=0;entryPerimeter=0;exitPerimeter=0;" parent="1" source="Ny59YyF_WHzDi1XFRu8P-21" target="Ny59YyF_WHzDi1XFRu8P-22" edge="1">
          <mxGeometry relative="1" as="geometry">
            <mxPoint x="-157.5500000000002" y="507.75000000000085" as="sourcePoint" />
            <mxPoint x="-96.55000000000021" y="468.75000000000085" as="targetPoint" />
          </mxGeometry>
        </mxCell>
        <mxCell id="Ny59YyF_WHzDi1XFRu8P-25" value="" style="endArrow=none;html=1;rounded=0;exitX=0.588;exitY=0.962;exitDx=0;exitDy=0;exitPerimeter=0;entryX=0.121;entryY=-0.018;entryDx=0;entryDy=0;entryPerimeter=0;" parent="1" source="Ny59YyF_WHzDi1XFRu8P-23" target="Ny59YyF_WHzDi1XFRu8P-21" edge="1">
          <mxGeometry relative="1" as="geometry">
            <mxPoint x="54.38681818181851" y="688.9799999999996" as="sourcePoint" />
            <mxPoint x="54.44681818181846" y="673.9799999999996" as="targetPoint" />
          </mxGeometry>
        </mxCell>
        <mxCell id="Ny59YyF_WHzDi1XFRu8P-32" value="doctor_specialization" style="shape=rhombus;perimeter=rhombusPerimeter;whiteSpace=wrap;html=1;align=center;" parent="1" vertex="1">
          <mxGeometry x="-257" y="517.4800000000001" width="140" height="50" as="geometry" />
        </mxCell>
        <mxCell id="Ny59YyF_WHzDi1XFRu8P-36" value="patient_dob" style="ellipse;whiteSpace=wrap;html=1;align=center;" parent="1" vertex="1">
          <mxGeometry x="-230.01999999999998" y="985" width="80" height="20" as="geometry" />
        </mxCell>
        <mxCell id="Ny59YyF_WHzDi1XFRu8P-37" value="" style="endArrow=none;html=1;rounded=0;exitX=0;exitY=0;exitDx=0;exitDy=0;entryX=0.75;entryY=1;entryDx=0;entryDy=0;" parent="1" source="Ny59YyF_WHzDi1XFRu8P-36" target="jbbtdIAwkqoKD0javM4b-99" edge="1">
          <mxGeometry relative="1" as="geometry">
            <mxPoint x="-283.90000000000003" y="1025" as="sourcePoint" />
            <mxPoint x="-288.90000000000003" y="1005" as="targetPoint" />
          </mxGeometry>
        </mxCell>
        <mxCell id="Ny59YyF_WHzDi1XFRu8P-38" value="prescribed_medicine" style="shape=rhombus;perimeter=rhombusPerimeter;whiteSpace=wrap;html=1;align=center;flipH=0;flipV=0;" parent="1" vertex="1">
          <mxGeometry x="-77.54" y="739.99" width="160" height="53.86" as="geometry" />
        </mxCell>
        <mxCell id="Ny59YyF_WHzDi1XFRu8P-42" value="" style="endArrow=none;dashed=1;html=1;rounded=0;exitX=0.885;exitY=0.376;exitDx=0;exitDy=0;entryX=0;entryY=1;entryDx=0;entryDy=0;exitPerimeter=0;" parent="1" source="Ny59YyF_WHzDi1XFRu8P-38" target="jbbtdIAwkqoKD0javM4b-52" edge="1">
          <mxGeometry width="50" height="50" relative="1" as="geometry">
            <mxPoint x="54.25" y="777.4000000000001" as="sourcePoint" />
            <mxPoint x="91.06000000000589" y="760.3200000000002" as="targetPoint" />
          </mxGeometry>
        </mxCell>
        <mxCell id="Ny59YyF_WHzDi1XFRu8P-43" value="" style="endArrow=none;dashed=1;html=1;rounded=0;exitX=1;exitY=0.5;exitDx=0;exitDy=0;entryX=0;entryY=0.5;entryDx=0;entryDy=0;" parent="1" source="Ny59YyF_WHzDi1XFRu8P-38" target="jbbtdIAwkqoKD0javM4b-63" edge="1">
          <mxGeometry width="50" height="50" relative="1" as="geometry">
            <mxPoint x="76.25" y="783.4000000000001" as="sourcePoint" />
            <mxPoint x="96.77999999999159" y="795.8800000000003" as="targetPoint" />
          </mxGeometry>
        </mxCell>
        <mxCell id="Ny59YyF_WHzDi1XFRu8P-44" value="" style="endArrow=none;dashed=1;html=1;rounded=0;exitX=0.852;exitY=0.647;exitDx=0;exitDy=0;exitPerimeter=0;entryX=0.268;entryY=0.188;entryDx=0;entryDy=0;entryPerimeter=0;" parent="1" source="Ny59YyF_WHzDi1XFRu8P-38" target="jbbtdIAwkqoKD0javM4b-51" edge="1">
          <mxGeometry width="50" height="50" relative="1" as="geometry">
            <mxPoint x="82.25" y="798.4000000000001" as="sourcePoint" />
            <mxPoint x="86.44250000000014" y="812.39464" as="targetPoint" />
          </mxGeometry>
        </mxCell>
        <mxCell id="FU_f0k-QAeN1vuseyPI--5" value="phone" style="ellipse;whiteSpace=wrap;html=1;align=center;rotation=0;" parent="1" vertex="1">
          <mxGeometry x="-429.03" y="824.62" width="60" height="15.38" as="geometry" />
        </mxCell>
        <mxCell id="FU_f0k-QAeN1vuseyPI--6" value="status" style="ellipse;whiteSpace=wrap;html=1;align=center;rotation=0;" parent="1" vertex="1">
          <mxGeometry x="-406.18" y="737.12" width="50" height="20" as="geometry" />
        </mxCell>
        <mxCell id="FU_f0k-QAeN1vuseyPI--7" value="problem" style="ellipse;whiteSpace=wrap;html=1;align=center;rotation=0;" parent="1" vertex="1">
          <mxGeometry x="-410" y="850.8700000000001" width="64.94" height="18.26" as="geometry" />
        </mxCell>
        <mxCell id="FU_f0k-QAeN1vuseyPI--13" value="appointment_no" style="ellipse;whiteSpace=wrap;html=1;align=center;fontStyle=4;" parent="1" vertex="1">
          <mxGeometry x="-458.13" y="765.47" width="106.25" height="24.53" as="geometry" />
        </mxCell>
        <mxCell id="fthoK1puPD9MAaoYh8Hu-1" value="" style="endArrow=none;html=1;rounded=0;exitX=0.01;exitY=0.231;exitDx=0;exitDy=0;entryX=0.978;entryY=0.665;entryDx=0;entryDy=0;exitPerimeter=0;entryPerimeter=0;" parent="1" source="fthoK1puPD9MAaoYh8Hu-3" target="FU_f0k-QAeN1vuseyPI--13" edge="1">
          <mxGeometry relative="1" as="geometry">
            <mxPoint x="-351.27" y="801.99" as="sourcePoint" />
            <mxPoint x="-80" y="825" as="targetPoint" />
          </mxGeometry>
        </mxCell>
        <mxCell id="fthoK1puPD9MAaoYh8Hu-2" value="" style="endArrow=none;html=1;rounded=0;entryX=1;entryY=0.5;entryDx=0;entryDy=0;exitX=0;exitY=0.75;exitDx=0;exitDy=0;" parent="1" source="fthoK1puPD9MAaoYh8Hu-3" target="FU_f0k-QAeN1vuseyPI--4" edge="1">
          <mxGeometry relative="1" as="geometry">
            <mxPoint x="-360" y="820" as="sourcePoint" />
            <mxPoint x="-354" y="812" as="targetPoint" />
          </mxGeometry>
        </mxCell>
        <mxCell id="fthoK1puPD9MAaoYh8Hu-3" value="&lt;span style=&quot;font-size: 20px;&quot;&gt;appointment&lt;/span&gt;" style="whiteSpace=wrap;html=1;align=center;" parent="1" vertex="1">
          <mxGeometry x="-345.06" y="776.99" width="140" height="40" as="geometry" />
        </mxCell>
        <mxCell id="fthoK1puPD9MAaoYh8Hu-5" value="" style="endArrow=none;html=1;rounded=0;exitX=0.161;exitY=0.984;exitDx=0;exitDy=0;entryX=0.757;entryY=0.075;entryDx=0;entryDy=0;entryPerimeter=0;exitPerimeter=0;" parent="1" source="fthoK1puPD9MAaoYh8Hu-3" target="FU_f0k-QAeN1vuseyPI--7" edge="1">
          <mxGeometry relative="1" as="geometry">
            <mxPoint x="-104" y="812" as="sourcePoint" />
            <mxPoint x="-195" y="807" as="targetPoint" />
          </mxGeometry>
        </mxCell>
        <mxCell id="fthoK1puPD9MAaoYh8Hu-7" value="" style="endArrow=none;html=1;rounded=0;exitX=0.965;exitY=0.705;exitDx=0;exitDy=0;entryX=0.204;entryY=-0.035;entryDx=0;entryDy=0;entryPerimeter=0;exitPerimeter=0;" parent="1" source="FU_f0k-QAeN1vuseyPI--6" target="fthoK1puPD9MAaoYh8Hu-3" edge="1">
          <mxGeometry relative="1" as="geometry">
            <mxPoint x="-212" y="762" as="sourcePoint" />
            <mxPoint x="-239" y="788" as="targetPoint" />
          </mxGeometry>
        </mxCell>
        <mxCell id="fthoK1puPD9MAaoYh8Hu-8" value="has" style="shape=rhombus;perimeter=rhombusPerimeter;whiteSpace=wrap;html=1;align=center;flipH=0;flipV=0;" parent="1" vertex="1">
          <mxGeometry x="-163.06999999999996" y="835.1" width="57.32" height="49.81" as="geometry" />
        </mxCell>
        <mxCell id="fthoK1puPD9MAaoYh8Hu-9" value="has" style="shape=rhombus;perimeter=rhombusPerimeter;whiteSpace=wrap;html=1;align=center;flipH=0;flipV=0;" parent="1" vertex="1">
          <mxGeometry x="-327.32" y="855.1500000000001" width="57.32" height="49.81" as="geometry" />
        </mxCell>
        <mxCell id="fthoK1puPD9MAaoYh8Hu-10" value="has" style="shape=rhombus;perimeter=rhombusPerimeter;whiteSpace=wrap;html=1;align=center;flipH=0;flipV=0;" parent="1" vertex="1">
          <mxGeometry x="-322.56" y="677.98" width="57.32" height="49.81" as="geometry" />
        </mxCell>
        <mxCell id="Byn8joqWkYTIwC0GCdsC-1" value="cc" style="ellipse;whiteSpace=wrap;html=1;align=center;" parent="1" vertex="1">
          <mxGeometry x="61.120000000000005" y="905" width="45.75" height="25" as="geometry" />
        </mxCell>
        <mxCell id="Byn8joqWkYTIwC0GCdsC-3" value="" style="endArrow=none;html=1;rounded=0;exitX=0;exitY=0;exitDx=0;exitDy=0;entryX=0.827;entryY=0.964;entryDx=0;entryDy=0;entryPerimeter=0;" parent="1" source="Byn8joqWkYTIwC0GCdsC-1" target="jbbtdIAwkqoKD0javM4b-70" edge="1">
          <mxGeometry relative="1" as="geometry">
            <mxPoint x="65" y="945" as="sourcePoint" />
            <mxPoint x="39" y="891" as="targetPoint" />
          </mxGeometry>
        </mxCell>
        <mxCell id="q_bACkfQ96GP_jLOjfz--1" value="" style="endArrow=none;html=1;rounded=0;exitX=0.966;exitY=0.586;exitDx=0;exitDy=0;entryX=0;entryY=1;entryDx=0;entryDy=0;exitPerimeter=0;" parent="1" source="FU_f0k-QAeN1vuseyPI--5" target="fthoK1puPD9MAaoYh8Hu-3" edge="1">
          <mxGeometry relative="1" as="geometry">
            <mxPoint x="-509" y="828" as="sourcePoint" />
            <mxPoint x="-249" y="778" as="targetPoint" />
          </mxGeometry>
        </mxCell>
        <mxCell id="FU_f0k-QAeN1vuseyPI--4" value="appointment_date" style="ellipse;whiteSpace=wrap;html=1;align=center;" parent="1" vertex="1">
          <mxGeometry x="-458.13000000000005" y="793.85" width="101.95" height="23.14" as="geometry" />
        </mxCell>
        <mxCell id="q_bACkfQ96GP_jLOjfz--3" value="" style="fontSize=12;html=1;endArrow=ERoneToMany;rounded=0;entryX=0;entryY=0.5;entryDx=0;entryDy=0;exitX=1;exitY=0.5;exitDx=0;exitDy=0;edgeStyle=orthogonalEdgeStyle;curved=1;" parent="1" source="Ny59YyF_WHzDi1XFRu8P-32" target="Ny59YyF_WHzDi1XFRu8P-16" edge="1">
          <mxGeometry width="100" height="100" relative="1" as="geometry">
            <mxPoint x="-236" y="564" as="sourcePoint" />
            <mxPoint x="-267" y="601" as="targetPoint" />
          </mxGeometry>
        </mxCell>
        <mxCell id="3pXVcGCdaW2TRZtOjEDm-8" value="0..*" style="edgeLabel;html=1;align=center;verticalAlign=middle;resizable=0;points=[];" parent="q_bACkfQ96GP_jLOjfz--3" vertex="1" connectable="0">
          <mxGeometry x="-0.0966" relative="1" as="geometry">
            <mxPoint as="offset" />
          </mxGeometry>
        </mxCell>
        <mxCell id="3pXVcGCdaW2TRZtOjEDm-1" value="" style="fontSize=12;html=1;endArrow=ERone;endFill=1;rounded=0;entryX=0.669;entryY=0.986;entryDx=0;entryDy=0;entryPerimeter=0;exitX=0.5;exitY=0;exitDx=0;exitDy=0;" parent="1" source="fthoK1puPD9MAaoYh8Hu-10" target="jbbtdIAwkqoKD0javM4b-1" edge="1">
          <mxGeometry width="100" height="100" relative="1" as="geometry">
            <mxPoint x="-270" y="737.12" as="sourcePoint" />
            <mxPoint x="-170" y="637.12" as="targetPoint" />
          </mxGeometry>
        </mxCell>
        <mxCell id="3pXVcGCdaW2TRZtOjEDm-3" value="0..*" style="edgeLabel;html=1;align=center;verticalAlign=middle;resizable=0;points=[];" parent="3pXVcGCdaW2TRZtOjEDm-1" vertex="1" connectable="0">
          <mxGeometry x="-0.1961" relative="1" as="geometry">
            <mxPoint as="offset" />
          </mxGeometry>
        </mxCell>
        <mxCell id="3pXVcGCdaW2TRZtOjEDm-5" value="" style="fontSize=12;html=1;endArrow=ERzeroToMany;endFill=1;rounded=0;entryX=0.391;entryY=0.02;entryDx=0;entryDy=0;entryPerimeter=0;exitX=0.5;exitY=1;exitDx=0;exitDy=0;" parent="1" source="fthoK1puPD9MAaoYh8Hu-10" target="fthoK1puPD9MAaoYh8Hu-3" edge="1">
          <mxGeometry width="100" height="100" relative="1" as="geometry">
            <mxPoint x="-340" y="770" as="sourcePoint" />
            <mxPoint x="-240" y="670" as="targetPoint" />
          </mxGeometry>
        </mxCell>
        <mxCell id="3pXVcGCdaW2TRZtOjEDm-6" value="1..1" style="edgeLabel;html=1;align=center;verticalAlign=middle;resizable=0;points=[];" parent="3pXVcGCdaW2TRZtOjEDm-5" vertex="1" connectable="0">
          <mxGeometry x="-0.0706" y="-2" relative="1" as="geometry">
            <mxPoint as="offset" />
          </mxGeometry>
        </mxCell>
        <mxCell id="3pXVcGCdaW2TRZtOjEDm-7" value="" style="edgeStyle=orthogonalEdgeStyle;fontSize=12;html=1;endArrow=ERzeroToMany;endFill=1;rounded=0;exitX=0;exitY=0.5;exitDx=0;exitDy=0;entryX=0.75;entryY=0;entryDx=0;entryDy=0;curved=1;" parent="1" source="Ny59YyF_WHzDi1XFRu8P-32" target="jbbtdIAwkqoKD0javM4b-1" edge="1">
          <mxGeometry width="100" height="100" relative="1" as="geometry">
            <mxPoint x="-280" y="630" as="sourcePoint" />
            <mxPoint x="-180" y="530" as="targetPoint" />
          </mxGeometry>
        </mxCell>
        <mxCell id="3pXVcGCdaW2TRZtOjEDm-9" value="1..*" style="edgeLabel;html=1;align=center;verticalAlign=middle;resizable=0;points=[];" parent="3pXVcGCdaW2TRZtOjEDm-7" vertex="1" connectable="0">
          <mxGeometry x="0.0936" y="5" relative="1" as="geometry">
            <mxPoint as="offset" />
          </mxGeometry>
        </mxCell>
        <mxCell id="3pXVcGCdaW2TRZtOjEDm-12" value="" style="fontSize=12;html=1;endArrow=ERzeroToMany;endFill=1;rounded=0;entryX=0.339;entryY=0.982;entryDx=0;entryDy=0;entryPerimeter=0;exitX=0.5;exitY=0;exitDx=0;exitDy=0;" parent="1" source="fthoK1puPD9MAaoYh8Hu-9" target="fthoK1puPD9MAaoYh8Hu-3" edge="1">
          <mxGeometry width="100" height="100" relative="1" as="geometry">
            <mxPoint x="-300" y="850" as="sourcePoint" />
            <mxPoint x="-280" y="788" as="targetPoint" />
          </mxGeometry>
        </mxCell>
        <mxCell id="3pXVcGCdaW2TRZtOjEDm-13" value="1..1" style="edgeLabel;html=1;align=center;verticalAlign=middle;resizable=0;points=[];" parent="3pXVcGCdaW2TRZtOjEDm-12" vertex="1" connectable="0">
          <mxGeometry x="-0.0706" y="-2" relative="1" as="geometry">
            <mxPoint x="-2" y="3" as="offset" />
          </mxGeometry>
        </mxCell>
        <mxCell id="3pXVcGCdaW2TRZtOjEDm-14" value="" style="fontSize=12;html=1;endArrow=ERone;endFill=1;rounded=0;entryX=0.429;entryY=0.024;entryDx=0;entryDy=0;entryPerimeter=0;exitX=0.5;exitY=1;exitDx=0;exitDy=0;" parent="1" source="fthoK1puPD9MAaoYh8Hu-9" target="jbbtdIAwkqoKD0javM4b-99" edge="1">
          <mxGeometry width="100" height="100" relative="1" as="geometry">
            <mxPoint x="-222.32" y="905" as="sourcePoint" />
            <mxPoint x="-221.32" y="856" as="targetPoint" />
          </mxGeometry>
        </mxCell>
        <mxCell id="3pXVcGCdaW2TRZtOjEDm-15" value="0..*" style="edgeLabel;html=1;align=center;verticalAlign=middle;resizable=0;points=[];" parent="3pXVcGCdaW2TRZtOjEDm-14" vertex="1" connectable="0">
          <mxGeometry x="-0.1961" relative="1" as="geometry">
            <mxPoint as="offset" />
          </mxGeometry>
        </mxCell>
        <mxCell id="3pXVcGCdaW2TRZtOjEDm-16" value="" style="edgeStyle=orthogonalEdgeStyle;fontSize=12;html=1;endArrow=ERone;endFill=1;rounded=0;entryX=1;entryY=0.5;entryDx=0;entryDy=0;exitX=0;exitY=0.5;exitDx=0;exitDy=0;curved=1;" parent="1" source="fthoK1puPD9MAaoYh8Hu-8" target="fthoK1puPD9MAaoYh8Hu-3" edge="1">
          <mxGeometry width="100" height="100" relative="1" as="geometry">
            <mxPoint x="-260" y="950" as="sourcePoint" />
            <mxPoint x="-160" y="850" as="targetPoint" />
          </mxGeometry>
        </mxCell>
        <mxCell id="3pXVcGCdaW2TRZtOjEDm-17" value="" style="edgeStyle=orthogonalEdgeStyle;fontSize=12;html=1;endArrow=ERone;endFill=1;rounded=0;entryX=0;entryY=0.5;entryDx=0;entryDy=0;exitX=1;exitY=0.5;exitDx=0;exitDy=0;curved=1;" parent="1" source="fthoK1puPD9MAaoYh8Hu-8" target="jbbtdIAwkqoKD0javM4b-70" edge="1">
          <mxGeometry width="100" height="100" relative="1" as="geometry">
            <mxPoint x="-153" y="870" as="sourcePoint" />
            <mxPoint x="-195" y="807" as="targetPoint" />
          </mxGeometry>
        </mxCell>
        <mxCell id="3pXVcGCdaW2TRZtOjEDm-18" value="" style="fontSize=12;html=1;endArrow=ERzeroToMany;endFill=1;rounded=0;entryX=0.5;entryY=0;entryDx=0;entryDy=0;exitX=0.5;exitY=1;exitDx=0;exitDy=0;" parent="1" source="Ny59YyF_WHzDi1XFRu8P-38" target="jbbtdIAwkqoKD0javM4b-70" edge="1">
          <mxGeometry width="100" height="100" relative="1" as="geometry">
            <mxPoint x="-105.75" y="828.6" as="sourcePoint" />
            <mxPoint x="-104.75" y="789.6" as="targetPoint" />
          </mxGeometry>
        </mxCell>
        <mxCell id="3pXVcGCdaW2TRZtOjEDm-19" value="0..*" style="edgeLabel;html=1;align=center;verticalAlign=middle;resizable=0;points=[];" parent="3pXVcGCdaW2TRZtOjEDm-18" vertex="1" connectable="0">
          <mxGeometry x="-0.0706" y="-2" relative="1" as="geometry">
            <mxPoint x="1" y="-6" as="offset" />
          </mxGeometry>
        </mxCell>
        <mxCell id="C0h2c1NOgejoDJxg5WyP-1" value="" style="fontSize=12;html=1;endArrow=ERzeroToMany;endFill=1;rounded=0;entryX=0.5;entryY=1;entryDx=0;entryDy=0;exitX=0.5;exitY=0;exitDx=0;exitDy=0;" edge="1" parent="1" source="Ny59YyF_WHzDi1XFRu8P-38" target="Ny59YyF_WHzDi1XFRu8P-21">
          <mxGeometry width="100" height="100" relative="1" as="geometry">
            <mxPoint x="10" y="750" as="sourcePoint" />
            <mxPoint x="17" y="850" as="targetPoint" />
          </mxGeometry>
        </mxCell>
        <mxCell id="C0h2c1NOgejoDJxg5WyP-2" value="0..*" style="edgeLabel;html=1;align=center;verticalAlign=middle;resizable=0;points=[];" vertex="1" connectable="0" parent="C0h2c1NOgejoDJxg5WyP-1">
          <mxGeometry x="-0.0706" y="-2" relative="1" as="geometry">
            <mxPoint x="-2" y="3" as="offset" />
          </mxGeometry>
        </mxCell>
      </root>
    </mxGraphModel>
  </diagram>
</mxfile>
